<?xml version="1.0" encoding="utf-8"?>
<!-- Generator: Adobe Illustrator 16.0.0, SVG Export Plug-In . SVG Version: 6.00 Build 0)  -->
<!DOCTYPE svg PUBLIC "-//W3C//DTD SVG 1.1//EN" "http://www.w3.org/Graphics/SVG/1.1/DTD/svg11.dtd">
<svg version="1.1" id="圖層_1" xmlns="http://www.w3.org/2000/svg" xmlns:xlink="http://www.w3.org/1999/xlink" x="0px" y="0px"
	 width="750px" height="800px" viewBox="0 0 750 800" enable-background="new 0 0 750 800" xml:space="preserve">
<g>
	<path fill-rule="evenodd" clip-rule="evenodd" fill="#B0766A" d="M363.485,800c11.984-5.489,23.996-10.921,35.943-16.469
		c16.111-7.482,32.323-14.85,47.261-24.167c4.52-2.819,8.158-6.796,12.198-10.243c2.002-0.679,2.679-2.423,3.255-3.919
		c7.377-19.132,17.505-37.52,20.453-57.883c2.075-14.336,9.315-27.474,11.203-41.843c1.083-8.219,3.199-16.305,3.044-24.671
		c-0.097-5.3-2.331-9.508-6.587-12.923c-4.753-3.819-9.858-7.292-14.355-11.359c-8.149-7.367-19.225-9.541-29.211-13.617
		c-13.635-5.557-27.562-10.517-41.26-15.932c-7.011-2.778-13.025-7.358-18.78-11.923c-9.854-7.821-21.098-12.716-33.992-14.576
		c-4.854-0.702-9.301-2.546-13.904-3.951c-2.18-0.662-4.219-1.86-3.857-4.35c0.379-2.67,2.632-3.679,5.265-3.621
		c6.458,0.133,12.579-1.422,18.79-2.646c6.774-1.331,31.977,4.341,35.939,8.888c5.274,6.052,12.363,9.004,19.676,12.038
		c3.922,1.629,7.812,2.29,11.971,1.257c7.058-1.77,14.274-2.679,21.505-3.572c4.872-0.611,9.443-2.149,13.606-4.514
		c3.131-1.777,6.56-2.977,10.12-2.373c11.308,1.935,17.519-4.572,20.284-12.236c2.921-8.119,7.331-15.907,8.661-24.482
		c0.772-5.004,0.965-10.05,3.085-14.878c1.385-3.148-0.21-6.397-1.472-9.365c-3.025-7.112-2.824-13.7,1.961-20.293
		c4.205-5.792,3.332-12.255-0.068-17.958c-4.297-7.212-4.132-14.003-0.759-21.362c2.062-4.501,3.09-9.388,3.634-14.307
		c0.42-3.789,1.723-7.245,5.15-9.822c2.519-1.891,4.822-2.03,6.546,0.628c4.62,7.135,11.093,9.041,19.553,6.141
		c2.587-0.887,4.804-0.167,6.239,2.063c2.244,3.475,5.672,4.074,9.694,3.379c3.305-0.572,6.595-1.215,9.886-1.873
		c5.535-1.11,6.843-0.457,8.94,4.316c1.184,2.687,2.454,5.318,4.575,7.521c4.31,4.481,9.594,6.038,16.116,4.851
		c4.118-0.748,7.852-3.448,12.399-2.129c1.052,4.351,0.083,8.541-1.243,12.701c-2.834,4.43-8.479,5.928-12.157,9.479
		c-10.632,10.258-23.896,18.251-32.123,30.58c-7.427,9.698-14.475,19.526-13.958,32.06c-3.04,2.464-4.754,5.633-5.773,9.115
		c-1.695,5.792-0.343,8.806,5.211,12.005c4.836,2.786,5.023,3.382,2.258,8.086c-1.143,1.943-2.267,3.886-3.236,5.903
		c-2.952,6.151-3.153,11.79,3.291,16.42c1.627,1.174,2.541,2.91,3.533,4.547c3.598,5.896,8.438,10.326,16.193,11.36
		c2.816,0.38,4.16,1.942,4.635,4.39c0.549,2.828,1.07,5.647,1.134,8.549c0.841,37.387,5.128,74.509,11.536,111.416
		c2.409,13.891,6.765,27.392,12.025,40.628c1.847,4.646,4.858,8.747,7.368,13.088c14.132,17.71,32.845,31.054,51.62,44.349
		c3.46,2.447,6.843,4.993,10.262,7.498c-15.354,0-30.701,0-46.054,0c-8.949-1.546-16.491-6.002-24.453-9.599
		c-4.173-1.885-8.182-4.109-12.633-5.432c-6.756-2.009-10.453,0.785-10.051,7.192c0.159,2.597,2.006,5.242-0.042,7.838
		c-21.715,0-43.435,0-65.149,0c-3.876-2.918-5.681-7.077-7.925-10.954c-1.473-2.547-2.766-5.168-4.36-7.664
		c-4.817-7.541-8.562-9.028-17.922-6.921c-6.596,1.488-12.569,4.341-18.557,7.103c-12.145,5.605-24.682,10.517-36.441,16.8
		c-1.449,0.777-3.228,0.802-4.657,1.637C400.178,800,381.832,800,363.485,800z"/>
	<path fill-rule="evenodd" clip-rule="evenodd" fill="#97665C" d="M418.525,800c6.394-5.035,14.159-7.994,21.664-11.178
		c11.55-4.895,22.524-10.896,34.591-14.832c4.154-1.356,8.337-1.555,12.629-1.422c3.227,0.099,5.836,1.322,7.354,3.894
		c4.607,7.813,9.091,15.685,13.625,23.538C478.431,800,448.48,800,418.525,800z"/>
	<path fill-rule="evenodd" clip-rule="evenodd" fill="#97665C" d="M573.537,800c-0.471-2.819-0.959-5.639-1.407-8.457
		c-0.996-6.275,3.798-10.153,10.48-8.227c8.931,2.579,16.646,7.531,25.184,10.904c4.397,1.736,8.62,3.837,12.922,5.779
		C604.988,800,589.264,800,573.537,800z"/>
	<path fill-rule="evenodd" clip-rule="evenodd" fill="#DAA2C4" d="M745.402,219.896c-3.474,7.147-9.462,12.887-13.493,19.737
		c-2.979,5.074-3.766,10.037,0.933,14.487c18.319,17.354,16.07,36.878,7.455,57.023c-4.785,11.196-10.983,21.765-18.507,31.673
		c-4.557,7.061-8.771,8.417-17.51,8.005c-11.596-0.545-23.237-0.211-32.013,8.547c-2.285,2.28-5.723,3.154-8.492,4.88
		c-15.682,8.315-32.579,12.585-50.789,12.468c-9.251-0.262-18.479-1.457-26.56-5.453c-9.142-4.518-17.816-3.838-26.921-0.746
		c-9.626,3.27-19.356,6.236-29.453,8.111c-20.444,3.795-33.822-1.482-44.459-17.542c-1.247-1.881-2.313-3.867-3.88-5.563
		c-3.049-4.225-7.244-3.485-11.473-2.061c-8.583,2.892-16.829,6.577-25.678,8.836c-5.768,1.474-11.526,2.828-17.651,1.619
		c-8.31-1.643-13.557-6.151-15.86-13.466c-1.179-3.743-1.847-7.571-1.919-11.5c-0.188-10.35-1.719-11.193-12.67-7.617
		c-12.305,4.018-24.494,8.36-37.352,10.847c-13.044,2.523-25.92,2.78-38.631-1.559c-7.537-2.573-13.79-6.695-18.881-12.28
		c-2.976-3.264-5.7-6.734-8.186-10.291c-4.968-7.106-12.002-8.541-20.431-6.908c-5.138,0.994-10.046,2.652-15.001,4.192
		c-10.078,2.869-19.923,6.606-30.724,6.821c-9.47,0.19-18.123-1.441-24.233-8.803c-5.146-7.03-9.507-14.448-13.433-22.085
		c-1.641-3.193-4.178-3.619-7.861-2.561c-8.323,2.389-16.509,5.124-25.207,6.54c-17.908,2.913-31.771-2.683-42.681-15.318
		c-1.837-2.127-3.766-4.244-5.178-6.598c-6.632-11.044-17.264-16.232-30.628-17.916c-6.44-0.813-12.793-2.251-18.881-4.43
		c-18.744-6.707-24.055-15.723-19.896-33.652c2.825-12.18,3.94-11.248-10.101-13.749c-5.284-0.94-10.659-1.77-15.01-5.027
		c-0.594-1.897,0.521-3.4,1.764-4.591c8.374-8.024,12.834-18.214,18.835-27.546c13.625-21.192,29.988-40.072,53.883-52.653
		c3.565-1.876,7.208-3.617,11.088-4.888c6.161-2.017,12.4-4.223,16.285,2.414c1.202,0.023,1.567-0.13,1.677-0.494
		c5.311-17.273,19.178-27.389,36.053-34.716c14.516-6.304,29.75-10.093,46.126-8.954c5.828,0.405,11.152,1.397,14.517,6.288
		c1.764,2.573,4.241,2.27,6.915,1.465c6.952-2.089,13.561-4.882,19.983-8.032c3.606-1.77,7.244-2.326,11.335-1.819
		c9.475,1.172,18.744,3.183,28.05,5.11c9.64,1.997,19.288,4.07,29.394,2.367c7.331-1.236,14.086-3.351,19.891-7.667
		c1.764-1.313,3.625-2.521,6.061-2.222c7.432,0.912,14.068-1.515,20.49-4.258c4.228-1.804,7.688-2.065,11.166,1.133
		c2.148,1.974,5.041,2.844,8.049,3.34c24.247,3.989,48.051,3.27,71.123-5.397c1.381-0.519,2.82-0.903,4.283-1.205
		c2.916-0.599,3.985,0.354,4.059,3.121c0.38,14.272,7.656,20.595,23.516,21.025c10.366,0.279,20.541-0.769,30.633-2.776
		c4.392-0.872,8.812-1.47,13.351-1.311c3.153,0.107,5.941,0.864,8.081,2.979c10.887,10.761,24.791,11.447,39.385,9.63
		c6.308-0.783,12.363-2.732,18.639-3.7c6.098-0.938,7.894,0.554,7.455,6.164c-0.283,3.578-1.732,6.92-2.692,10.364
		c-3.053,11.002,1.152,18.032,12.922,21.81c7.002,2.249,14.224,2.689,21.573,2.563c6.549-0.114,13.108-0.213,19.648,0.064
		c5.001,0.211,6.294,1.943,5.064,6.265c-0.75,2.647-2.354,4.958-3.707,7.375c-4.511,8.065-8.153,16.35-7.696,25.663
		c0.672,13.613,9.671,21.507,24.704,21.558c2.993,0.011,5.987,0.019,8.968-0.347c4.063-0.5,5.196,1.294,3.912,4.471
		c-1.682,4.165-3.099,8.309-2.774,12.84c0.435,6.106,4.018,9.713,10.741,10.337c6.042,0.562,11.979-0.161,17.743-1.77
		c3.812-1.06,6.48-0.634,7.962,3.152c1.266,3.237,4.461,3.838,7.82,3.797c7.103-0.087,14.219,0.409,21.308-0.386
		C743.052,218.975,744.36,218.933,745.402,219.896z"/>
	<path fill-rule="evenodd" clip-rule="evenodd" fill="#E4B9D4" d="M745.402,219.896c-8.862,1.79-17.857,0.781-26.793,1.002
		c-4.041,0.101-7.075-1.511-7.798-5.192c-0.585-3.016-1.91-2.929-4.589-2.135c-4.771,1.416-9.703,2.085-14.786,2.342
		c-15.462,0.783-18.977-7.881-16.02-19.886c0.686-2.792,2.989-5.099,2.893-8.534c-4.611,1.207-9.224,0.907-13.816,0.905
		c-13.923-0.002-23.827-8.691-24.704-21.391c-0.704-10.161,2.875-19.266,8.03-27.999c1.934-3.27,5.375-6.914,3.738-10.144
		c-1.641-3.237-6.741-1.178-10.283-1.35c-11.683-0.566-23.452,1.002-34.997-2.447c-11.486-3.433-18.817-11.905-13.882-24.9
		c1.321-3.482,2.56-7.023,2.528-10.833c-0.023-2.97-1.07-3.812-4.43-3.138c-11.596,2.327-23.018,5.382-35.207,4.812
		c-8.886-0.417-16.897-2.733-22.629-8.491c-5.636-5.657-11.889-5.54-18.776-4.251c-12.254,2.29-24.526,4-37.113,3.501
		c-11.226-0.447-20.156-5.819-22.785-14.159c-1.087-3.448-0.937-6.92,0.489-11.043c-10.078,3.063-19.247,6.233-28.891,8.057
		c-14.635,2.766-29.22,2.222-43.873,0.442c-6.701-0.814-13.347-1.47-17.999-6.821c-1.399-1.61-3.159-0.097-4.525,0.572
		c-5.142,2.524-10.869,5.457-16.258,4.911c-8.254-0.831-13.159,3.663-19.361,6.499c-13.223,6.048-27.077,4.859-40.884,1.85
		c-10.668-2.321-21.258-4.837-32.241-5.819c-2.642-0.235-4.644,0.097-6.829,1.104c-7.82,3.603-15.677,7.106-24.087,9.543
		c-2.838,0.823-5.156,0.688-6.033-1.747c-1.993-5.492-7.048-6.35-12.03-6.552c-28.795-1.174-53.476,7.33-73.367,26.436
		c-4.58,4.396-7.148,9.834-8.328,15.763c-0.284,1.401-0.443,2.763-2.194,3.173c-1.792,0.419-2.852-0.492-3.341-1.958
		c-1.485-4.452-5.074-4.395-8.991-3.384c-11.902,3.074-21.966,9.15-31.382,16.147c-20.769,15.438-34.627,35.553-46.401,56.979
		c-3.464,6.296-9.498,10.802-13.31,16.798c-8.789-3.981-12.057-11.207-13.44-19.307c-2.815-16.478,3.133-31.419,11.347-45.537
		c9.79-16.825,22.04-32.23,37.817-44.975c5.576-4.51,9.196-9.95,12.898-15.607c22.862-34.929,56.137-56.806,100.398-64.377
		c12.643-2.162,25.86-2.592,36.793,4.376c8.254,5.264,16.674,5.903,25.888,5.622c10.841-0.329,21.619,0.335,32.333,1.887
		c2.148,0.312,3.885-0.124,5.594-1.559c9.863-8.278,22.264-11.435,35.016-13.46C311,3.685,322.56,5.315,332.4,12.841
		c6.115,4.677,10.361,10.595,13.296,17.269c1.595,3.625,2.624,5.438,7.445,2.156c23.68-16.118,50.826-25.595,79.479-31.239
		c13.154-2.59,26.166-0.517,36.249,8.945c1.787,1.676,3.821,3.644,4.393,5.775c1.499,5.589,4.401,6.004,9.955,4.134
		c14.502-4.882,29.307-9.051,44.714-10.875c19.622-2.321,38.718-1.806,55.538,9.583c7.505,5.083,12.181,11.864,14.914,19.751
		c1.39,4.004,3.272,5,8.099,4.343c11.778-1.598,23.662-2.726,35.614-0.669c15.705,2.704,26.661,13.52,29.344,27.674
		c2.221,11.678-0.563,22.456-4.8,33.154c-1.622,4.103-0.694,5.395,4.196,5.384c6.596-0.014,12.876,1.604,18.685,4.597
		c4.379,2.257,7.181,5.568,7.459,10.062c0.16,2.59,1.408,3.45,3.775,4.136c12.479,3.617,20.888,11.492,27.059,21.575
		c4.182,6.837,4.31,13.904,0.53,20.898c-6.943,12.846-10.22,12.33,7.5,21.267c1.303,0.658,2.519,1.458,3.762,2.21
		C751.124,199.951,753.089,209.095,745.402,219.896z"/>
	<path fill-rule="evenodd" clip-rule="evenodd" fill="#DAA2C4" d="M546.465,502.318c-2.094-6.037,0.063-11.544,2.834-16.87
		c2.897-5.581,6.248-10.951,10.69-15.694c10.16-7.121,21.116-12.775,33.969-14.813c6.934-1.1,13.804-1.559,19.731,3.025
		c1.988,1.538,3.351,1.112,3.83-1.311c1.353-6.883,6.829-10.21,13.42-12.396c7.399-2.449,13.255-0.213,16.773,6.187
		c0.663,1.209,1.011,2.567,1.984,3.628c2.696,2.933,6.188,3.051,8.743,0.031c2.948-3.481,6.888-5.11,11.473-5.718
		c8.83-1.17,16.984,0.118,24.348,5.079c5.781,3.894,7.911,10.549,4.36,16.537c-1.582,2.66-0.54,3.675,1.718,5.308
		c7.985,5.773,15.852,11.705,23.128,18.218c1.878,1.683,3.446,3.835,3.675,6.181c0.891,9.036,3.835,17.914,2.628,27.116
		c-4.968,8.02-4.077,16.279-0.923,24.489c4.013,10.441,3.496,20.347-2.404,30.234c-2.07,3.481-1.572,7.83-4.1,11.649
		c-2.798,4.241-6.002,7.358-10.988,8.747c-10.938,3.034-21.838,4.424-32.132-1.992c-3.034-1.894-5.64-4.291-6.494-7.392
		c-0.914-3.299-2.345-2.596-4.626-1.529c-7.984,3.721-16.161,6.705-25.197,8.012c-17.305,2.496-30.121-3.729-40.259-15.767
		c-2.601-3.084-4.817-6.433-7.258-9.624c-0.996-1.307-2.107-2.654-3.588-0.355c-3.177-2.232-6.819-3.299-10.75-3.993
		c-7.176-1.273-14.224-2.968-20.536-6.557c-6.865-3.902-10.261-9.516-10.914-16.783c-0.887-9.863,2.079-18.81,7.642-27.094
		c2.235-3.331,1.572-4.804-2.313-6.366C550.25,510.621,546.164,507.827,546.465,502.318z"/>
	<path fill-rule="evenodd" clip-rule="evenodd" fill="#97665C" d="M482.66,354.648c2.747,2.383,4.04,5.618,5.992,8.458
		c8.272,12.025,21.861,17.296,37.378,14.893c12.931-2.005,25.033-6.373,37.356-10.089c7.93-2.394,15.146-2.065,22.515,1.623
		c8.3,4.152,17.569,5.285,26.897,5.928c1.313,1.28,1.106,2.819,0.832,4.324c-2.157,11.85-4.146,23.724-6.115,35.601
		c-0.169,1.013-0.544,1.972-1.531,2.615c-2.669,0.748-5.389,1.37-7.998,2.265c-14.494,4.969-22.84-2.516-26.341-12.391
		c-1.325-3.733-2.66-4.485-6.65-3.462c-4.621,1.183-9.333,2.241-14.22,2.464c-3.213,0.147-5.974-0.916-6.874-3.392
		c-1.257-3.466-3.135-3.202-6.216-2.365c-10.544,2.867-14.292,1.594-19.882-6.856c-1.509-2.282-2.309-2.336-4.498-0.667
		c-3.131,2.385-4.497,5.469-4.753,8.819c-0.521,6.829-2.614,13.299-5.315,19.558c-1.947,4.52-1.604,8.52,0.809,12.602
		c5.21,8.82,6.381,17.423-0.617,26.141c-3.222,4.015-2.276,8.764-0.479,13.156c2.436,5.967,4.163,11.655,0.365,17.933
		c-1.463,2.416-0.571,5.955-0.928,8.967c-1.037,8.741-6.842,16.122-8.501,24.856c-0.813,4.283-5.901,7.938-9.183,11.79
		c-1.746,2.051-4.429,1.563-6.801,1.463c-6.601-0.256-12.675,0.265-18.644,3.754c-7.52,4.398-17.255,2.629-25.267,5.498
		c-12.551,4.489-22.4-0.95-32.739-5.432c-0.974-0.422-1.993-1.149-2.505-1.984c-4.822-7.871-13.195-9.765-22.058-10.963
		c-2.564-0.348-5.261-0.67-7.564-1.646c-3.816-1.62-7.423-1.62-11.386-0.579c-5.727,1.497-11.545,2.778-17.62,2.216
		c-2.144-0.198-3.821,0.513-4.237,2.464c-0.494,2.307,1.81,2.853,3.469,3.266c5.544,1.39,10.823,3.556,16.573,4.357
		c12.578,1.744,23.031,7.251,32.405,14.865c12.008,9.748,26.894,14.643,41.562,20.05c12.23,4.514,24.384,9.227,36.5,13.98
		c8.396,3.291,13.923,10.607,21.423,15.278c11.449,7.119,11.432,17.016,9.776,27.904c-2.468,16.229-7.098,31.896-11.966,47.655
		c-3.062,9.913-3.675,20.537-7.555,30.408c-4.548,11.592-9.077,23.191-13.986,34.658c-0.772,1.803-0.476,5.903-5.192,4.49
		c4.525-16.122,9.393-32.162,12.921-48.516c5.005-23.199,7.61-46.639,9.604-70.16c0.689-8.11-2.336-14.452-10.439-18.553
		c-3.734-1.894-7.317-4.043-10.965-6.068c-5.073-0.43-8.849-3.473-13.035-5.539c-34.417-16.999-69.917-31.881-106.281-45.117
		c-2.221-0.811-4.667-1.307-6.271-3.15c-16.116-6.631-33.064-11.145-49.87-16.022c-6.554-1.901-13.228-3.456-19.851-5.168
		c-1.865-1.446-1.906-3.596-2.463-5.506c-1.947-6.598-4.827-12.757-9.781-18.007c-2.258-3.921-6.042-6.716-9.077-10.066
		c-1.038-1.149-2.103-2.571-1.005-4.088c0.713-0.988,1.956-0.658,2.984-0.096c5.567,3.458,12.103,3.069,18.351,3.63
		c30.5,2.734,61.091,4.33,91.714,5.419c3.67-1.604,7.633-1.731,11.504-1.314c15.238,1.646,30.527,0.598,45.784,0.97
		c21.45-1.196,42.872-2.612,63.993-6.492c3.474-0.637,5.184-2.367,5.146-5.589c-0.082-7.606,0.58-15.229-0.525-22.811
		c-0.394-2.693-0.53-5.391-0.53-8.101c0-31.979-0.022-63.959,0.036-95.939C480.84,360.043,480.1,357.019,482.66,354.648z"/>
	<path fill-rule="evenodd" clip-rule="evenodd" fill="#B087A0" d="M412.857,503.218c-19.165,0.528-38.302-0.139-57.43-1.104
		c5.64-5.343,11.979-10.808,20.143-10.987c6.143-0.137,8.712-3.138,12.145-6.108c9.758-8.433,21.07-14.266,34.604-16.63
		c-9.241-7.867-10.201-11.862-5.754-22.618c3.235-7.826,7.815-14.983,13.31-21.652c1.622-1.97,2.024-3.243-0.435-4.863
		c-1.632-1.073-3.227-2.489-4.168-4.074c-3.762-6.313-9.174-7.561-16.491-5.538c-6.042,1.672-12.327,2.665-18.543,3.787
		c-10.814,1.953-18.589-1.3-24.046-9.934c-2.135-3.375-4.127-6.825-6.289-10.186c-2.83-4.402-6.979-5.899-12.382-4.274
		c-9.735,2.927-19.453,5.905-29.197,8.805c-5.558,1.654-11.303,2.08-17.131,2.14c-7.459,0.076-14.109-2.199-17.999-7.741
		c-6.746-9.62-16.856-11.532-28.036-11.775c-6.184-0.134-12.322-0.523-18.31-1.941c-14.032-3.322-18.429-9.653-15.746-22.416
		c2.198-10.461,2.208-10.473-7.468-15.938c-3.186-1.8-6.211-3.758-8.812-6.236c-6.778-6.458-7.382-13.158-1.796-20.579
		c0.183,0.023,0.43-0.012,0.548,0.081c13.785,10.604,28.841,8.076,44.125,3.567c3.346-0.988,6.545-2.466,10.142-2.672
		c2.153,2.34,0.43,4.896,0.388,7.321c-0.173,10.024,6.29,17.042,16.692,17.517c5.42,0.246,10.179-1.918,14.745-4.291
		c6.998-3.638,7.953-3.483,11.083,3.309c2.094,4.535,5.115,7.799,10.732,8.64c1.668,0.25,3.272,0.864,4.607,1.788
		c7.468,5.159,15.641,4.721,24.069,2.648c7.414-1.823,7.437-1.811,11.829,4.001c3.981,5.262,9.676,7.943,16.5,8.429
		c5.202,0.37,10.495,0.587,15.659-0.333c4.027-0.717,7.551,0.035,10.398,2.501c9.022,7.819,20.366,9.485,32.09,10.143
		c7.661,0.428,8.616,1.226,6.984,7.964c-1.143,4.7,0.37,7.951,5.064,10.039c2.468,1.095,3.738,2.745,3.277,5.281
		c-2.313,12.834,1.677,24.59,10.283,34.272c6.604,7.433,3.949,14.115,1.454,21.056c-1.669,4.651-3.913,9.124-4.525,14.039
		c-0.302,2.445-1.659,3.956-4.095,4.983c-8.072,3.394-13.662,9.369-16.537,16.539C425.627,497.426,420.174,500.936,412.857,503.218z
		"/>
	<path fill-rule="evenodd" clip-rule="evenodd" fill="#DAA2C4" d="M253.338,506.554c6.938,6.887,9.973,15.262,11.367,24.273
		c0.517,8.731-2.07,16.379-9.548,22.282c-1.403,1.107-1.7,2.472-2.02,4.001c-0.91,4.341-3.556,7.764-7.414,10.409
		c-3.067,2.101-7.048,3.117-9.914,1.1c-4.246-2.977-6.929-1.811-10.956,0.339c-17.122,9.128-39.435,1.869-46.885-14.865
		c-1.39-3.117-1.901-7.564-4.461-8.987c-3.126-1.744-6.262,2.473-9.607,3.721c-12.579,4.705-20.138,2.373-26.021-8.821
		c-2.793-5.308-4.749-10.979-7.071-16.498c-0.983-2.34-2.203-3.902-5.576-3.965c-14.045-0.261-16.345-2.782-15.563-16.165
		c4.685-0.327,7.583-2.832,10.343-6.092c4.516-5.332,9.219-10.506,13.474-16.043c4.168-5.42,8.876-6.104,15.595-3.519
		c2.715,1.044,5.517,1.699,8.359,2.127c0.786-2.435-1.065-3.134-2.084-4.223c-4.767-5.102-6.879-11.233-7.748-17.653
		c-0.599-4.479,4.288-6.288,7.213-8.301c6.65-4.568,14.104-8.047,22.633-3.043c2.286,1.344,3.076,0.612,3.57-1.742
		c1.156-5.535,10.01-9.665,17.867-8.603c6.618,0.896,11.12,6.12,10.613,12.311c-0.645,7.892-0.645,7.892,7.77,9.826
		c7.089,1.631,7.77,3.369,3.501,8.938c-4.232,5.515-3.56,9.837,3.026,12.379c8.876,3.431,14.247,9.532,18.47,16.891
		c1.376,2.404,2.953,4.707,4.598,6.962C248.374,505.652,250.221,507.281,253.338,506.554z"/>
	<path fill-rule="evenodd" clip-rule="evenodd" fill="#E4B9D4" d="M729.77,526.826c-3.24-4.506-0.278-9.707-2.103-14.535
		c-1.207-3.199-1.325-6.899-1.513-10.465c-0.311-6.172-5.567-9.836-10.385-13.207c-4.292-3.004-8.908-5.531-11.76-9.907
		c-1.271-1.945-3.922-1.794-5.832-2.807c-2.628-1.399-4.365-3.173-1.628-5.55c4.521-3.932,3.364-8.262,0.563-11.953
		c-3.936-5.19-9.776-8.469-16.911-8.824c-4.795-0.237-9.713-0.682-14.43,0.992c-2.701,0.961-5.101,2.249-6.467,4.591
		c-0.851,1.457-1.139,3.967-3.424,3.197c-2.925-0.987-7.025-0.769-8.204-4.38c-1.654-5.056-4.479-9.338-10.818-9.429
		c-6.952-0.102-12.433,3.229-16.624,8.158c-0.648,0.763-0.919,1.854-1.147,2.831c-1.54,6.586-1.448,6.499-7.811,2.274
		c-4.763-3.163-10.361-2.663-15.673-1.865c-11.797,1.773-22.346,6.266-31.784,12.913c-1.042,0.733-2.125,2.139-3.83,0.893
		c5.233-7.193,10.503-14.359,19.068-18.782c3.054-1.577,4.333-4.574,6.642-6.761c5.452-5.159,11.961-9.105,18.209-13.354
		c3.369-4.465,8.986-5.858,13.849-8.27c1.802-0.893,3.644-1.726,5.467-2.588c5.672-2.135,11.267-4.469,17.382-5.409
		c1.957-0.3,4.009-1.123,5.855,0.357c6.741,1.015,6.828,5.577,6.687,10.262c0.032,1.819-0.489,3.586-0.713,5.42
		c1.724,1.087,3.702-0.401,5.348,0.563c5.622-2.154,11.313-3.891,16.263-7.569c5.493-4.081,12.61-3.646,19.242-2.418
		c9.187,1.703,17.053,5.653,22.949,12.48c7.13,8.264,7.938,16.796,1.494,25.723c-2.519,3.493-2.304,5.92,0.402,8.961
		c5.494,6.172,11.084,12.329,14.416,19.784C738.482,501.428,738.34,514.383,729.77,526.826z"/>
	<path fill-rule="evenodd" clip-rule="evenodd" fill="#E4B9D4" d="M253.338,506.554c-4.013,4.266-5.86,0.19-7.514-1.937
		c-2.88-3.713-5.293-7.739-7.661-11.753c-3.213-5.461-8.03-9.032-14.237-11.592c-8.725-3.601-9.768-8.914-3.579-15.58
		c3.172-3.423,2.642-4.922-2.148-5.931c-1.444-0.304-2.953-0.367-4.37-0.741c-6.582-1.73-7.445-3.067-6.07-9.145
		c1.829-8.084-4.84-14.008-13.675-12.116c-2.354,0.502-4.717,1.017-6.998,1.738c-3.218,1.019-5.777,2.512-4.575,6.302
		c0.348,1.09,0.499,2.528-0.777,3.264c-1.413,0.813-2.912,0.409-4.104-0.607c-7.642-6.523-18.132-1.488-23.612,3.73
		c-1.755,1.673-6.436,1.902-5.174,6.12c1.855,6.17,2.87,12.688,8.501,17.199c1.846,1.48,3.693,2.673,2.34,4.922
		c-1.654,2.753-3.574,0.593-5.626,0.082c-2.875-0.717-5.507-1.718-8.213-2.817c-5.174-2.098-9.082,1.121-11.262,4.343
		c-4.447,6.575-10.325,12.059-15.403,18.127c-2.057,2.464-4.547,6.592-9.511,3.215c-0.315-7.644,2.637-14.585,5.836-21.424
		c0.878-1.873,1.618-2.813-0.864-4.411c-6.723-4.322-7.77-10.733-5.224-17.224c5.183-13.212,15.366-22.083,30.326-26.187
		c3.04-0.83,5.544-1.946,7.966-4.071c5.869-5.157,13.529-7.737,21.189-9.955c8.867-2.567,17.944-4.444,27.104-5.969
		c10.951-1.821,15.915,2.559,11.875,11.378c-2.176,4.75-0.526,5.773,3.876,6.591c3.734,0.694,6.911,2.604,9.854,4.674
		c3.218,2.261,4.959,5.369,2.989,8.919c-2.432,4.382-0.389,7.437,2.916,10.239c2.861,2.422,5.851,4.725,8.895,6.955
		c12.56,9.202,14.251,14.713,8.647,28.247c-0.219,0.531,0.192,1.279,0.311,1.924c-2.294-0.093-4.013,0.087-1.709,2.551
		C246.994,499.181,251.18,502.135,253.338,506.554z"/>
	<path fill-rule="evenodd" clip-rule="evenodd" fill="#B087A0" d="M334.425,552.018c12.884,3.473,25.047,8.615,37.287,13.526
		c26.77,10.731,53.22,22.075,78.756,35.088c3.231,1.646,6.367,3.456,9.544,5.192c-10.325,5.076-20.326,10.69-32.26,12.525
		c-14.822,2.29-26.674-1.893-34.983-13.055c-3.104-4.175-6.239-6.002-11.756-5.398c-4.84,0.529-9.653-0.446-14.297-1.943
		c-10.96-3.53-14.475-8.399-12.898-18.825c0.324-2.149-0.05-2.786-2.281-2.662c-0.375,0.017-0.75,0-1.125-0.017
		c-16.354-0.711-21.208-6.64-17.245-21.092C333.479,554.226,334,553.134,334.425,552.018z"/>
	<path fill-rule="evenodd" clip-rule="evenodd" fill="#97665C" d="M546.465,502.318c2.445,6.592,8.487,9.428,15.257,11.585
		c-5.448,8.743-10.576,17.305-10.942,27.457c-0.43,11.848,4.278,18.512,16.505,23.067c6.408,2.39,13.264,3.199,19.9,4.762
		c2.573,0.604,4.566,1.373,4.616,4.118c-2.244,48.854-0.672,97.525,8.373,145.867c1.801,9.624,3.154,19.313,4.713,28.979
		c-5.114-2.951-6.925-7.929-8.771-12.616c-7.322-18.586-12.153-37.677-14.914-57.304c-2.696-19.165-4.703-38.362-6.627-57.585
		c-1.28-12.749-2.185-25.498-2.23-38.305c-0.009-2.67-0.854-5.324-0.987-7.995c-0.109-2.199-1.175-2.819-3.451-2.976
		c-6.632-0.464-11.39-3.729-14.937-8.648c-2.619-3.638-4.968-7.351-8.629-10.418c-2.815-2.364-4.379-5.828-2.414-9.706
		c0.997-1.968,1.207-4.266,2.208-6.226c1.48-2.901,4.543-5.564,4.758-8.458c0.274-3.695-5.361-2.844-7.72-5.283
		c-2.792-2.881-3.063-5.978-2.271-8.937C540.066,509.34,540.117,503.997,546.465,502.318z"/>
	<path fill-rule="evenodd" clip-rule="evenodd" fill="#B087A0" d="M646.461,414.947c-8.291,0.581-15.646,4.088-23.466,6.139
		c-0.987-7.338-1.192-14.673,1.211-21.821c0.782-2.33,1.275-4.403,0.581-6.866c-1.262-4.469,0.735-7.877,5.302-9.985
		c1.17-0.54,2.399-0.945,3.67-1.228c12.291-2.741,22.017-8.936,29.637-17.97c7.577-3.007,11.852-10.419,20.6-12.117
		c6.398-1.242,12.943-2.819,19.215-1.823c6.942,1.102,12.034-0.18,16.417-4.88c0.585-0.628,1.436-1.058,2.162-1.579
		c-2.304,14.915-9.132,27.478-23.562,35.767c-4.899,2.815-10.353,4.944-16.408,2.592c-1.395-0.542-2.418-0.372-3.57,0.469
		c-7.335,5.357-15.604,9.229-24.452,12.149C659.205,402.95,658.048,406.198,646.461,414.947z"/>
	<path fill-rule="evenodd" clip-rule="evenodd" fill="#B48CA4" d="M657.783,431.191c-2.276,0.617-4.553,1.237-7.309,1.986
		c-0.063-3.169,1.243-5.583,2.674-7.969C654.785,427.144,656.828,428.822,657.783,431.191z"/>
	<path fill-rule="evenodd" clip-rule="evenodd" fill="#85687A" d="M663.396,363.216c-3.351,8.305-11.075,12.414-19.179,15.967
		c-3.479,1.527-7.213,2.64-11.057,3.491c-6.522,1.447-8.501,5.173-6.312,10.878c0.447,1.164,1.023,2.447,0.232,3.406
		c-3.962,4.793-3.076,10.297-2.865,15.638c0.114,2.945-1.166,5.626-1.221,8.489c-6.362,3.259-12.725,6.517-19.087,9.772
		c0.695-4.287,1.385-8.572,2.075-12.858c1.152-14.326,4.434-28.375,6.819-42.54C630.843,375.363,647.631,371.016,663.396,363.216z"
		/>
	<path fill-rule="evenodd" clip-rule="evenodd" fill="#97665C" d="M555.625,760.91c-9.205-3.795-17.107-7.027-24.974-10.334
		c-0.759-0.323-1.814-1.133-1.81-1.712c0.036-5.267,1.933-10.252,3.798-15.113c0.686-1.794,2.313,0.041,3.245,1.059
		c5.315,5.778,11.427,11.004,14.302,18.403C551.082,755.512,553.129,757.455,555.625,760.91z"/>
	<path fill-rule="evenodd" clip-rule="evenodd" fill="#85687A" d="M412.857,503.218c9.104-3.57,12.935-11.007,17.208-18.396
		c3.305-5.715,8.232-10.532,15.339-12.748c2.112-0.66,2.268-1.832,2.368-3.444c0.315-5.132,3.163-9.673,4.424-14.488
		c1.541-5.868,5.75-11.445-0.315-18.493c-9.018-10.476-14.466-22.869-11.106-36.891c0.435-1.805-0.352-2.544-2.226-3.369
		c-6.975-3.069-8.108-5.488-6.321-12.04c1.591-5.841,1.504-5.758-5.16-6.046c-12.259-0.527-24.138-2.102-33.471-10.512
		c-2.601-2.342-5.768-2.667-9.758-2.067c-5.823,0.876-12.044,1.006-17.854,0.134c-7.148-1.073-13.373-4.384-16.527-10.858
		c-1.316-2.706-2.894-3.272-6.111-2.271c-10.046,3.123-20.042,4.347-29.046-2.67c-0.672-0.525-1.687-0.949-2.555-0.971
		c-7.189-0.188-10.312-4.413-12.583-9.829c-2.418-5.758-2.477-5.545-8.684-2.271c-5.311,2.805-10.878,5.575-17.373,4.436
		c-12.13-2.129-18.365-10.87-16.075-22.133c0.265-1.321,0.54-2.637,0.809-3.958c6.458-2.72,13.159-4.533,20.307-5.165
		c6.988-0.618,11.737,2.149,15.654,7.048c5.128,6.41,9.489,13.388,16.916,18.113c11.12,7.069,23.511,9.08,36.734,8.053
		c17.163-1.335,32.917-7.23,48.851-12.507c12.711-4.21,14.237-3.372,14.333,8.735c0.027,3.596,0.641,7.098,1.514,10.529
		c2.587,10.107,12.29,15.407,23.831,13.604c12.121-1.891,22.917-7.079,34.32-10.756c4.502-1.453,9.562-3.185,12.359,2.667
		c-0.023,36.157-0.416,72.322,0.188,108.473c0.159,9.404,0.438,18.854,0.822,28.277c0.123,3.032-0.914,4.522-4.511,5.083
		c-12.428,1.935-24.801,4.138-37.425,4.855C432.104,501.887,422.483,502.585,412.857,503.218z"/>
	<path fill-rule="evenodd" clip-rule="evenodd" fill="#E4B9D4" d="M187.621,188.983c-7.852,5.182-14.013,12.141-23.941,13.9
		c-1.755,0.31-2.024,2.296-2.815,3.603c-2.825,4.675-6.079,8.941-11.966,10.849c-6.042,1.958-10.933-0.971-11.166-6.788
		c-0.128-3.196-0.453-6.472,1.056-9.494c1.614-3.249-1.289-6.401-0.457-9.266c2.112-7.255,4.013-14.812,10.631-20.124
		c8.593-6.891,18.438-11.974,29.051-15.884c3.163-1.166,5.613-1.215,5.741,2.695c0.083,2.394,1.371,2.218,3.323,1.641
		c11.591-3.419,22.812-2.623,34.444,0.907c7.409,2.249,15.773,1.8,23.598,3.084c6.829,1.118,14.987,5.421,14.032,12.011
		c-0.896,6.162-9.388,12.243-15.951,10.186c-14.759-4.622-20.266-0.926-36.492,3.941c-2.651,0.796-5.238,1.788-7.907,2.526
		C194.057,194.081,189.55,194.537,187.621,188.983z"/>
	<path fill-rule="evenodd" clip-rule="evenodd" fill="#E4B9D4" d="M542.083,206.732c0.155,2.987-1.76,5.043-3.799,7.082
		c-2.957,2.958-2.911,5.134,1.518,7.178c5.453,2.516,10.791,5.265,15.407,9.101c3.108,2.58,4.343,5.421,3.685,8.987
		c-0.731,3.975-1.449,7.98-2.665,11.846c-1.243,3.939-4.662,5.155-8.707,3.425c-5.695-2.441-11.161-5.103-11.106-11.972
		c0.014-1.511-0.731-2.259-2.478-1.321c-0.795,0.428-1.608,0.856-2.463,1.16c-11.427,4.062-15.879,2.147-19.668-8.433
		c-5.068-14.125-19.549-17.848-32.574-8.319c-1.596,1.166-3.031,2.149-4.877,0.632c-2.532-2.089-4.918-4.305-3.744-7.844
		c1.408-4.252,4.904-6.786,9.242-8.196c15.792-5.138,31.844-9.443,48.549-11.436C536.826,197.615,542.356,200.922,542.083,206.732z"
		/>
	<path fill-rule="evenodd" clip-rule="evenodd" fill="#E4B9D4" d="M657.938,525.421c-0.544-5.052,2.103-7.573,5.133-8.359
		c3.813-0.992,8.127-4.721,12.186-0.228c3.071,3.411,7.322,2.675,11.34,2.749c6.047,0.108,6.349,0.464,3.766,5.077
		c-2.248,4.026-0.648,6.696,3.433,8.714c4.868,2.406,8.401,5.663,7.784,11.211c-0.494,4.391-5,6.135-9.178,3.878
		c-3.021-1.638-4.768-3.101-5.329-6.854c-0.96-6.391-7.35-9.408-13.301-11.789c-3.808-1.521-7.962-2.745-12.455-1.712
		C657.244,529.042,658.03,526.057,657.938,525.421z"/>
	<path fill-rule="evenodd" clip-rule="evenodd" fill="#E4B9D4" d="M202.938,540.923c-2.939-0.257-5.407-1.72-7.098-4.465
		c-2.144-3.473-4.539-6.482-9.937-5.82c-2.418,0.298-5.096-1.075-5.988-3.142c-1.677-3.895-4.84-4.109-8.556-3.845
		c-4.072,0.293-8.085,0.442-8.382-4.779c-0.027-0.409-0.649-0.793-1.01-1.182c-3.803-4.102-3.729-4.44,1.998-6.168
		c2.642-0.802,5.329-1.629,8.063-1.951c4.74-0.563,10.11-1.912,9.735,5.535c-0.146,2.832,3.446,2.741,5.599,3.245
		c2.107,0.496,4.452,0.298,6.682,0.207c4.219-0.17,7.171,1.289,8.748,4.943c1.691,3.919,3.479,7.772,6.011,11.368
		C210.712,537.591,207.627,540.864,202.938,540.923z"/>
</g>
</svg>
